<svg height="1758" width="720" xmlns="http://www.w3.org/2000/svg">
<rect height="1758" fill="#555" width="720"></rect>
<text fill="#7f7" font-family="Courier New" font-size="12" xml:space="preserve">
<tspan x="10" y="26">13 megabytes installed</tspan>
<tspan x="10" y="42"></tspan>
<tspan x="10" y="58">node_modules</tspan>
<tspan x="10" y="74">└─┬ karma-coverage@1.1.1 </tspan>
<tspan x="10" y="90">  ├─┬ dateformat@1.0.12 </tspan>
<tspan x="10" y="106">  │ ├── get-stdin@4.0.1 </tspan>
<tspan x="10" y="122">  │ └─┬ meow@3.7.0 </tspan>
<tspan x="10" y="138">  │   ├─┬ camelcase-keys@2.1.0 </tspan>
<tspan x="10" y="154">  │   │ └── camelcase@2.1.1 </tspan>
<tspan x="10" y="170">  │   ├── decamelize@1.2.0 </tspan>
<tspan x="10" y="186">  │   ├─┬ loud-rejection@1.6.0 </tspan>
<tspan x="10" y="202">  │   │ ├─┬ currently-unhandled@0.4.1 </tspan>
<tspan x="10" y="218">  │   │ │ └── array-find-index@1.0.2 </tspan>
<tspan x="10" y="234">  │   │ └── signal-exit@3.0.2 </tspan>
<tspan x="10" y="250">  │   ├── map-obj@1.0.1 </tspan>
<tspan x="10" y="266">  │   ├── minimist@1.2.0 </tspan>
<tspan x="10" y="282">  │   ├─┬ normalize-package-data@2.3.6 </tspan>
<tspan x="10" y="298">  │   │ ├── hosted-git-info@2.4.2 </tspan>
<tspan x="10" y="314">  │   │ ├─┬ is-builtin-module@1.0.0 </tspan>
<tspan x="10" y="330">  │   │ │ └── builtin-modules@1.1.1 </tspan>
<tspan x="10" y="346">  │   │ ├── semver@5.3.0 </tspan>
<tspan x="10" y="362">  │   │ └─┬ validate-npm-package-license@3.0.1 </tspan>
<tspan x="10" y="378">  │   │   ├─┬ spdx-correct@1.0.2 </tspan>
<tspan x="10" y="394">  │   │   │ └── spdx-license-ids@1.2.2 </tspan>
<tspan x="10" y="410">  │   │   └── spdx-expression-parse@1.0.4 </tspan>
<tspan x="10" y="426">  │   ├── object-assign@4.1.1 </tspan>
<tspan x="10" y="442">  │   ├─┬ read-pkg-up@1.0.1 </tspan>
<tspan x="10" y="458">  │   │ ├─┬ find-up@1.1.2 </tspan>
<tspan x="10" y="474">  │   │ │ ├── path-exists@2.1.0 </tspan>
<tspan x="10" y="490">  │   │ │ └─┬ pinkie-promise@2.0.1 </tspan>
<tspan x="10" y="506">  │   │ │   └── pinkie@2.0.4 </tspan>
<tspan x="10" y="522">  │   │ └─┬ read-pkg@1.1.0 </tspan>
<tspan x="10" y="538">  │   │   ├─┬ load-json-file@1.1.0 </tspan>
<tspan x="10" y="554">  │   │   │ ├── graceful-fs@4.1.11 </tspan>
<tspan x="10" y="570">  │   │   │ ├─┬ parse-json@2.2.0 </tspan>
<tspan x="10" y="586">  │   │   │ │ └─┬ error-ex@1.3.1 </tspan>
<tspan x="10" y="602">  │   │   │ │   └── is-arrayish@0.2.1 </tspan>
<tspan x="10" y="618">  │   │   │ ├── pify@2.3.0 </tspan>
<tspan x="10" y="634">  │   │   │ └─┬ strip-bom@2.0.0 </tspan>
<tspan x="10" y="650">  │   │   │   └── is-utf8@0.2.1 </tspan>
<tspan x="10" y="666">  │   │   └── path-type@1.1.0 </tspan>
<tspan x="10" y="682">  │   ├─┬ redent@1.0.0 </tspan>
<tspan x="10" y="698">  │   │ ├─┬ indent-string@2.1.0 </tspan>
<tspan x="10" y="714">  │   │ │ └─┬ repeating@2.0.1 </tspan>
<tspan x="10" y="730">  │   │ │   └─┬ is-finite@1.0.2 </tspan>
<tspan x="10" y="746">  │   │ │     └── number-is-nan@1.0.1 </tspan>
<tspan x="10" y="762">  │   │ └── strip-indent@1.0.1 </tspan>
<tspan x="10" y="778">  │   └── trim-newlines@1.0.0 </tspan>
<tspan x="10" y="794">  ├─┬ istanbul@0.4.5 </tspan>
<tspan x="10" y="810">  │ ├── abbrev@1.0.9 </tspan>
<tspan x="10" y="826">  │ ├── async@1.5.2 </tspan>
<tspan x="10" y="842">  │ ├─┬ escodegen@1.8.1 </tspan>
<tspan x="10" y="858">  │ │ ├── estraverse@1.9.3 </tspan>
<tspan x="10" y="874">  │ │ ├── esutils@2.0.2 </tspan>
<tspan x="10" y="890">  │ │ ├─┬ optionator@0.8.2 </tspan>
<tspan x="10" y="906">  │ │ │ ├── deep-is@0.1.3 </tspan>
<tspan x="10" y="922">  │ │ │ ├── fast-levenshtein@2.0.6 </tspan>
<tspan x="10" y="938">  │ │ │ ├── levn@0.3.0 </tspan>
<tspan x="10" y="954">  │ │ │ ├── prelude-ls@1.1.2 </tspan>
<tspan x="10" y="970">  │ │ │ └── type-check@0.3.2 </tspan>
<tspan x="10" y="986">  │ │ └─┬ source-map@0.2.0 </tspan>
<tspan x="10" y="1002">  │ │   └── amdefine@1.0.1 </tspan>
<tspan x="10" y="1018">  │ ├── esprima@2.7.3 </tspan>
<tspan x="10" y="1034">  │ ├─┬ glob@5.0.15 </tspan>
<tspan x="10" y="1050">  │ │ ├── inflight@1.0.6 </tspan>
<tspan x="10" y="1066">  │ │ ├── inherits@2.0.3 </tspan>
<tspan x="10" y="1082">  │ │ └── path-is-absolute@1.0.1 </tspan>
<tspan x="10" y="1098">  │ ├─┬ handlebars@4.0.6 </tspan>
<tspan x="10" y="1114">  │ │ ├─┬ optimist@0.6.1 </tspan>
<tspan x="10" y="1130">  │ │ │ ├── minimist@0.0.10 </tspan>
<tspan x="10" y="1146">  │ │ │ └── wordwrap@0.0.3 </tspan>
<tspan x="10" y="1162">  │ │ ├── source-map@0.4.4 </tspan>
<tspan x="10" y="1178">  │ │ └─┬ uglify-js@2.8.22 </tspan>
<tspan x="10" y="1194">  │ │   ├── uglify-to-browserify@1.0.2 </tspan>
<tspan x="10" y="1210">  │ │   └─┬ yargs@3.10.0 </tspan>
<tspan x="10" y="1226">  │ │     ├── camelcase@1.2.1 </tspan>
<tspan x="10" y="1242">  │ │     ├─┬ cliui@2.1.0 </tspan>
<tspan x="10" y="1258">  │ │     │ ├─┬ center-align@0.1.3 </tspan>
<tspan x="10" y="1274">  │ │     │ │ ├─┬ align-text@0.1.4 </tspan>
<tspan x="10" y="1290">  │ │     │ │ │ ├─┬ kind-of@3.1.0 </tspan>
<tspan x="10" y="1306">  │ │     │ │ │ │ └── is-buffer@1.1.5 </tspan>
<tspan x="10" y="1322">  │ │     │ │ │ ├── longest@1.0.1 </tspan>
<tspan x="10" y="1338">  │ │     │ │ │ └── repeat-string@1.6.1 </tspan>
<tspan x="10" y="1354">  │ │     │ │ └── lazy-cache@1.0.4 </tspan>
<tspan x="10" y="1370">  │ │     │ ├── right-align@0.1.3 </tspan>
<tspan x="10" y="1386">  │ │     │ └── wordwrap@0.0.2 </tspan>
<tspan x="10" y="1402">  │ │     └── window-size@0.1.0 </tspan>
<tspan x="10" y="1418">  │ ├─┬ js-yaml@3.8.3 </tspan>
<tspan x="10" y="1434">  │ │ ├─┬ argparse@1.0.9 </tspan>
<tspan x="10" y="1450">  │ │ │ └── sprintf-js@1.0.3 </tspan>
<tspan x="10" y="1466">  │ │ └── esprima@3.1.3 </tspan>
<tspan x="10" y="1482">  │ ├─┬ mkdirp@0.5.1 </tspan>
<tspan x="10" y="1498">  │ │ └── minimist@0.0.8 </tspan>
<tspan x="10" y="1514">  │ ├── nopt@3.0.6 </tspan>
<tspan x="10" y="1530">  │ ├─┬ once@1.4.0 </tspan>
<tspan x="10" y="1546">  │ │ └── wrappy@1.0.2 </tspan>
<tspan x="10" y="1562">  │ ├── resolve@1.1.7 </tspan>
<tspan x="10" y="1578">  │ ├─┬ supports-color@3.2.3 </tspan>
<tspan x="10" y="1594">  │ │ └── has-flag@1.0.0 </tspan>
<tspan x="10" y="1610">  │ ├─┬ which@1.2.14 </tspan>
<tspan x="10" y="1626">  │ │ └── isexe@2.0.0 </tspan>
<tspan x="10" y="1642">  │ └── wordwrap@1.0.0 </tspan>
<tspan x="10" y="1658">  ├── lodash@3.10.1 </tspan>
<tspan x="10" y="1674">  ├─┬ minimatch@3.0.3 </tspan>
<tspan x="10" y="1690">  │ └─┬ brace-expansion@1.1.7 </tspan>
<tspan x="10" y="1706">  │   ├── balanced-match@0.4.2 </tspan>
<tspan x="10" y="1722">  │   └── concat-map@0.0.1 </tspan>
<tspan x="10" y="1738">  └── source-map@0.5.6</tspan>
</text>
</svg>
